<?xml version="1.0" encoding="utf-8"?>
<!-- Generator: Adobe Illustrator 26.0.1, SVG Export Plug-In . SVG Version: 6.00 Build 0)  -->
<svg version="1.1" id="Layer_1" xmlns="http://www.w3.org/2000/svg" xmlns:xlink="http://www.w3.org/1999/xlink" x="0px" y="0px"
	 viewBox="0 0 1440 2252" style="enable-background:new 0 0 1440 2252;" xml:space="preserve">
<style type="text/css">
	.st0{opacity:0.3;}
	.st1{fill:none;stroke:#FA9BE6;stroke-width:5;stroke-miterlimit:10;}
	.st2{fill:#47103D;stroke:#FA9BE6;stroke-width:5;stroke-miterlimit:10;}
</style>
<g class="st0">
	<line class="st1" x1="0" y1="2165.4" x2="1440" y2="2165.4"/>
	<line class="st1" x1="0" y1="2252" x2="1440" y2="2252"/>
	<line class="st1" x1="0" y1="2078.8" x2="1440" y2="2078.8"/>
	<line class="st1" x1="0" y1="1992.2" x2="1440" y2="1992.2"/>
	<line class="st1" x1="0" y1="1905.5" x2="1440" y2="1905.5"/>
	<line class="st1" x1="0" y1="1818.9" x2="1440" y2="1818.9"/>
	<line class="st1" x1="0" y1="1732.3" x2="1440" y2="1732.3"/>
	<line class="st1" x1="0" y1="1645.7" x2="1440" y2="1645.7"/>
	<line class="st1" x1="0" y1="1559.1" x2="1440" y2="1559.1"/>
	<line class="st1" x1="0" y1="1472.5" x2="1440" y2="1472.5"/>
	<line class="st1" x1="0" y1="1385.8" x2="1440" y2="1385.8"/>
	<line class="st1" x1="0" y1="1299.2" x2="1440" y2="1299.2"/>
	<line class="st1" x1="0" y1="1212.6" x2="1440" y2="1212.6"/>
	<line class="st1" x1="0" y1="1126" x2="1440" y2="1126"/>
	<line class="st1" x1="0" y1="1039.4" x2="1440" y2="1039.4"/>
	<line class="st1" x1="0" y1="952.8" x2="1440" y2="952.8"/>
	<line class="st1" x1="0" y1="866.2" x2="1440" y2="866.2"/>
	<line class="st1" x1="0" y1="779.5" x2="1440" y2="779.5"/>
	<line class="st1" x1="0" y1="692.9" x2="1440" y2="692.9"/>
	<line class="st1" x1="0" y1="606.3" x2="1440" y2="606.3"/>
	<line class="st1" x1="0" y1="519.7" x2="1440" y2="519.7"/>
	<line class="st1" x1="0" y1="433.1" x2="1440" y2="433.1"/>
	<line class="st1" x1="0" y1="346.5" x2="1440" y2="346.5"/>
	<line class="st1" x1="0" y1="259.8" x2="1440" y2="259.8"/>
	<line class="st1" x1="0" y1="173.2" x2="1440" y2="173.2"/>
	<line class="st1" x1="0" y1="86.6" x2="1440" y2="86.6"/>
	<line class="st1" x1="0" y1="0" x2="1440" y2="0"/>
	<line class="st1" x1="1350" y1="0" x2="1350" y2="2252"/>
	<line class="st2" x1="1440" y1="0" x2="1440" y2="2252"/>
	<line class="st2" x1="0" y1="0" x2="0" y2="2252"/>
	<line class="st1" x1="1260" y1="0" x2="1260" y2="2252"/>
	<line class="st1" x1="1170" y1="0" x2="1170" y2="2252"/>
	<line class="st1" x1="1080" y1="0" x2="1080" y2="2252"/>
	<line class="st1" x1="990" y1="0" x2="990" y2="2252"/>
	<line class="st1" x1="900" y1="0" x2="900" y2="2252"/>
	<line class="st1" x1="810" y1="0" x2="810" y2="2252"/>
	<line class="st1" x1="720" y1="0" x2="720" y2="2252"/>
	<line class="st1" x1="630" y1="0" x2="630" y2="2252"/>
	<line class="st1" x1="540" y1="0" x2="540" y2="2252"/>
	<line class="st1" x1="450" y1="0" x2="450" y2="2252"/>
	<line class="st1" x1="360" y1="0" x2="360" y2="2252"/>
	<line class="st1" x1="270" y1="0" x2="270" y2="2252"/>
	<line class="st1" x1="180" y1="0" x2="180" y2="2252"/>
	<line class="st1" x1="90" y1="0" x2="90" y2="2252"/>
</g>
</svg>
