<?xml version="1.0" encoding="utf-8"?>
<!-- Generator: Adobe Illustrator 26.0.1, SVG Export Plug-In . SVG Version: 6.00 Build 0)  -->
<svg version="1.1" id="Layer_1" xmlns="http://www.w3.org/2000/svg" xmlns:xlink="http://www.w3.org/1999/xlink" x="0px" y="0px"
	 viewBox="0 0 18.1 86" style="enable-background:new 0 0 18.1 86;" xml:space="preserve">
<style type="text/css">
	.st0{fill:#FA9BE6;}
</style>
<g id="search">
</g>
<g id="location">
</g>
<g id="mail">
</g>
<g>
	<polygon class="st0" points="15.4,35.2 2.7,35.2 9,41.3 	"/>
	<polygon class="st0" points="11,40.8 9,42.7 7,40.7 2.7,45 15.3,45 	"/>
	<polygon class="st0" points="6.3,40 2,35.9 2,44.3 	"/>
	<polygon class="st0" points="16,45 16,45 16,45 	"/>
	<polygon class="st0" points="16,35.2 16,35.2 16,35.2 	"/>
	<polygon class="st0" points="16,35.9 11.7,40.1 16,44.4 	"/>
</g>
<path class="st0" d="M9,2C5.2,2,2,5.2,2,9s3.1,7,7,7s7-3.1,7-7S12.9,2,9,2z M13.2,12.5c-0.1,0.3-0.6,0.7-1,0.8
	c-1,0.1-2.7-0.6-3.8-1.6c-1.8-1.4-2.6-2.6-3.4-4.4C4.7,6.9,4.7,6.1,4.8,5.7c0.1-0.9,1.6-1,1.8-0.8c0.5,0.3,1,1.6,1,2.2
	c0,0.6-0.7,0.8-0.8,1.1c-0.1,0.5,1,1.5,1,1.5s1.6,1.5,2.1,1.5c0.3,0,0.6-0.7,0.8-0.8c0.5-0.1,1.9,0.5,2.4,1.1
	C13.5,11.7,13.2,12.3,13.2,12.5z"/>
<g id="location_00000100354496455737569030000015265355434112942469_">
	<g>
		<path class="st0" d="M16.3,70.3c0-4-3.2-7.3-7.3-7.3s-7.3,3.2-7.3,7.3c0,1.6,0.5,3.1,1.4,4.2l0,0L9,84l5.9-9.4l0,0
			C15.8,73.4,16.3,71.9,16.3,70.3z M9,74.1c-2.1,0-3.7-1.7-3.7-3.7S7,66.6,9,66.6s3.7,1.7,3.7,3.7S11.1,74.1,9,74.1z"/>
	</g>
</g>
</svg>
