<svg id="Layer_1" data-name="Layer 1" xmlns="http://www.w3.org/2000/svg" viewBox="0 0 42.89 42.26"><defs><style>.cls-1{fill:#a5f3ff;}</style></defs><g id="facebook"><path class="cls-1" d="M35.47,19.43c-1.84,0-3.52,0-5.2,0-.8,0-1-.24-1-1,.09-1.26.07-2.53.18-3.79a1.78,1.78,0,0,1,1.69-1.82c1.23-.1,2.46-.14,3.69-.13.64,0,.86-.19.85-.83,0-1.61,0-3.23,0-4.92-2.57-.22-5-.52-7.47.09a7.3,7.3,0,0,0-5.47,7.29c0,1.65,0,3.3,0,5.11-1.52,0-3,0-4.42,0-.72,0-1,.23-1,.94,0,1.59,0,3.18,0,4.77,0,.58.19.7.74.69,1.52,0,3,0,4.6,0V41.45c-.39,0-.74,0-1.09,0h-18A2.29,2.29,0,0,1,1,38.93V3.06A2.23,2.23,0,0,1,3.34.76c11.83,0,23.66,0,35.49,0,2.31,0,3.05,1.22,3,3,0,11.64,0,23.27,0,34.91,0,2-.74,2.81-2.79,2.82-3,0-6,0-9,0-.59,0-.79-.19-.79-.79q0-7.07,0-14.14c0-.58.18-.81.79-.79,1.3,0,2.6,0,3.9,0,.24,0,.68-.23.7-.4C35,23.48,35.2,21.55,35.47,19.43Z"/></g></svg>