<?xml version="1.0" encoding="utf-8"?>
<!-- Generator: Adobe Illustrator 26.0.1, SVG Export Plug-In . SVG Version: 6.00 Build 0)  -->
<svg version="1.1" id="Layer_1" xmlns="http://www.w3.org/2000/svg" xmlns:xlink="http://www.w3.org/1999/xlink" x="0px" y="0px"
	 viewBox="0 0 43.6 42.3" style="enable-background:new 0 0 43.6 42.3;" xml:space="preserve">
<style type="text/css">
	.st0{fill:#A5F3FF;}
</style>
<g id="facebook_00000050639472624852623270000004810089324675284628_">
	<path class="st0" d="M168.1,19.4c-1.8,0-3.5,0-5.2,0c-0.8,0-1-0.2-1-1c0.1-1.3,0.1-2.5,0.2-3.8c0.1-1,0.6-1.7,1.7-1.8
		c1.2-0.1,2.5-0.1,3.7-0.1c0.6,0,0.9-0.2,0.8-0.8c0-1.6,0-3.2,0-4.9c-2.6-0.2-5-0.5-7.5,0.1c-3.3,0.8-5.4,3.7-5.5,7.3
		c0,1.7,0,3.3,0,5.1c-1.5,0-3,0-4.4,0c-0.7,0-1,0.2-1,0.9c0,1.6,0,3.2,0,4.8c0,0.6,0.2,0.7,0.7,0.7c1.5,0,3,0,4.6,0
		c0,5.3,0,10.4,0,15.6c-0.4,0-0.7,0-1.1,0c-6,0-12,0-18,0c-1.7,0-2.6-0.9-2.6-2.6c0-12,0-23.9,0-35.9c0-1.3,1-2.3,2.3-2.3
		c11.8,0,23.7,0,35.5,0c2.3,0,3,1.2,3,3c0,11.6,0,23.3,0,34.9c0,2.1-0.7,2.8-2.8,2.8c-3,0-6,0-9,0c-0.6,0-0.8-0.2-0.8-0.8
		c0-4.7,0-9.4,0-14.1c0-0.6,0.2-0.8,0.8-0.8c1.3,0,2.6,0,3.9,0c0.2,0,0.7-0.2,0.7-0.4C167.6,23.5,167.9,21.6,168.1,19.4z"/>
</g>
<g id="instagram">
	<path class="st0" d="M29,7.8H14.6c-3.4,0-6.1,2.7-6.1,6.1v14.5c0,3.4,2.7,6.1,6.1,6.1H29c3.4,0,6.1-2.7,6.1-6.1V13.9
		C35.1,10.5,32.4,7.8,29,7.8z M21.8,30.3c-5.1,0-9.2-4.1-9.2-9.2s4.1-9.2,9.2-9.2c5.1,0,9.2,4.1,9.2,9.2S26.9,30.3,21.8,30.3z
		 M30.5,14.5c-1.1,0-2-0.9-2-2c0-1.1,0.9-2,2-2s2,0.9,2,2S31.6,14.5,30.5,14.5z"/>
	<circle class="st0" cx="21.8" cy="21.1" r="5.2"/>
	<path class="st0" d="M39.8,0.6H3.7c-1.4,0-2.4,1.1-2.4,2.4v36.1c0,1.4,1.1,2.4,2.4,2.4h36.1c1.4,0,2.4-1.1,2.4-2.4V3.1
		C42.3,1.7,41.2,0.6,39.8,0.6z M39.1,28.4c0,5.6-4.5,10.1-10.1,10.1H14.6C9,38.5,4.4,33.9,4.4,28.4V13.9C4.4,8.3,9,3.8,14.6,3.8H29
		c5.6,0,10.1,4.5,10.1,10.1V28.4z"/>
</g>
</svg>
